/* XPM */
static char * lz_xpm[] = {
"37 50 16 1",
" 	c None",
".	c #060606",
"+	c #C7C7C7",
"@	c #8D8D8D",
"#	c #6D6D6D",
"$	c #515151",
"%	c #D4D4D4",
"&	c #383838",
"*	c #DCDCDC",
"=	c #232323",
"-	c #E4E4E4",
";	c #A1A1A1",
">	c #151515",
",	c #F9F9F9",
"'	c #B3B3B3",
")	c #7E7E7E",
"                                     ",
"               >....                 ",
"            ............             ",
"          ..............>            ",
"         ..............>=.=          ",
"        ............>===.>=>         ",
"       ........>&&===>.>=$==         ",
"       ..>=&&=.......&#'*%&=>        ",
"      ...&@+%+;)#))@+-,,,%@=>        ",
"      ...&;%-,,,,,,,,,,,-*'$..       ",
"      ..>$;%,,,,,,,,,,,,-*'#>.       ",
"      ..>$;%-,,,,,,,,,,,-+')>.       ",
"      ..>$@+*,,,,,,,,,,-%+;)=.       ",
"      ..>$@'%-,,,,,,,,-*+%'@=.>      ",
"      ..>#;++'++%%+%%@$$&$&&&>>      ",
"      ...&$#$&==#@@;$&$&&$##&>>      ",
"      ..>>$$>>===&&#=&>.>&$$>..      ",
"     &...>$>...>=>&$>>....$=>.>)     ",
"    =)>...#>...==&*'=>...>#>..$$     ",
"    &&$...>...>$=)-+@=>>>>==>>#&     ",
"     ;$>&.>.>&#$);-++)&=&=&&#=##     ",
"     ;#>@#==$#$@';*;%-'))@'%;&)      ",
"     @$>$+%+;''%+@-++,,-,--%;$@      ",
"      )&&;*-**-%;;-%'-,,,,*%@#       ",
"      '@=#+---,+##%';+,,,-*;#;       ",
"       '=&;%-,-+&=$=$%,,,*+)#        ",
"         =#'+-*';$>#;*,,-%;$$        ",
"         >&@+*+'+*)'*---%+)&         ",
"         =>$;++';))$)'%-+@$          ",
"          >&#;)$&#$###@%;)&          ",
"          ==&@+'$#@#)@;%;$$          ",
"          =.>$#@@#&$##)'@&=          ",
"          >..>$)'+'++++;$=&          ",
"          =>.>&'%*--,-*)&=&)         ",
"         &$>>>>@---,,-;$>=&@>        ",
"        .#$>$>>$'%%%%'#&>&$;>        ",
"       ..#'=$#&=$)))##$&&$+;>>       ",
"      ...$,)#);#>.>>=&)$)#,;>>>      ",
"     ....$--);;';$==$@@)#@,)>>>>>    ",
"   ......&-,''+''%*%';;;+,,$>>>>>=>  ",
"  .>>....=*,,***+%%%'+%*,,,$>.>>>=== ",
"    =>..>>%,,,,--%*%+**,,,,&>.>>=&   ",
"     &=>..;,,,,,--+;;%,,,,-&>.>>     ",
"      &&.>;--,,,,-@)*,,,,,-=>>==     ",
"        ..@,,,,,,-$&),,,,,*>>=       ",
"         >#,,,,,,@&>=),,,,'>         ",
"         >$,,,,,;$;&$#;,,,'          ",
"          $,,,,+#-+$',)*,,@          ",
"          #,,,-)-,'#+,,;,            ",
"          @,,,*,,-#$@,,,             "};

