/* XPM */
static char * mg_xpm[] = {
"32 32 4 1",
" 	c None",
"*	c #808080",
"=	c #C0C0C0",
"!	c #FFFFFF",
"           !!!!!!!!!!!!!!!!!!!==",
"           !=================*!*",
"           !================*!=*",
"           !===============*!==*",
"           !==============*!===*",
"           !=============*!====*",
"           !=====********!=====*",
"           !=====*      !======*",
"           !=====*     !=======*",
"           !=====*    !=======* ",
"           !=====*   !=======*  ",
"!!!!!!!!!!!!=====*  !=======*   ",
"!================* !=======*    ",
"!================*!=======*     ",
"!===============*!=======*      ",
"!==============*!=======*!!!!!!=",
"!=============*!=======*!======*",
"!=====********!=======*!=======*",
"!=====*      !=======*!========*",
"!=====*     !=======*!=========*",
"!=====*    !=======*!==========*",
"!=====*   !=======*!====*!=====*",
"!=====*  !=======*!=====*!=====*",
"!=====* !=======*!======*!=====*",
"!=====*!=======**********!=====*",
"!====*!========!!!!!!!!!!!=====*",
"!===*!=========================*",
"!==*!==========================*",
"!=*!===========================*",
"!*!============================*",
"=!=============================*",
"=*******************************"};

